<mxfile host="app.diagrams.net" modified="2024-03-05T11:52:21.370Z" agent="Mozilla/5.0 (Windows NT 10.0; Win64; x64; rv:123.0) Gecko/20100101 Firefox/123.0" version="24.0.1" etag="axPZWQGuH86bkRLO77p_" type="github">
  <diagram name="Side-1" id="qIvhhCW1w78LOn8ZOzXI">
    <mxGraphModel>
      <root>
        <mxCell id="0" />
        <mxCell id="1" parent="0" />
      </root>
    </mxGraphModel>
  </diagram>
</mxfile>
